HIERARCHY
ROOT Hips
{
	OFFSET 0.00000 0.00000 0.00000
	CHANNELS 6 Xposition Yposition Zposition Zrotation Yrotation Xrotation 
	JOINT LHipJoint
	{
		OFFSET 0 0 0
		CHANNELS 3 Zrotation Yrotation Xrotation
		JOINT LeftHip
		{
			OFFSET 1.74857 -1.85566 0.69197
			CHANNELS 3 Zrotation Yrotation Xrotation
			JOINT LeftKnee
			{
				OFFSET 2.40003 -6.59403 0.00000
				CHANNELS 3 Zrotation Yrotation Xrotation
				JOINT LeftAnkle
				{
					OFFSET 2.82169 -7.75254 0.00000
					CHANNELS 3 Zrotation Yrotation Xrotation
					JOINT LeftToe
					{
						OFFSET 0.16466 -0.45240 2.26890
						CHANNELS 3 Zrotation Yrotation Xrotation
						End Site
						{
							OFFSET 0.00000 -0.00000 1.16486
						}
					}
				}
			}
		}
	}
	JOINT RHipJoint
	{
		OFFSET 0 0 0
		CHANNELS 3 Zrotation Yrotation Xrotation
		JOINT RightHip
		{
			OFFSET -1.64169 -1.85566 0.69197
			CHANNELS 3 Zrotation Yrotation Xrotation
			JOINT RightKnee
			{
				OFFSET -2.41814 -6.64379 0.00000
				CHANNELS 3 Zrotation Yrotation Xrotation
				JOINT RightAnkle
				{
					OFFSET -2.80588 -7.70911 0.00000
					CHANNELS 3 Zrotation Yrotation Xrotation
					JOINT RightToe
					{
						OFFSET -0.19098 -0.52472 2.25401
						CHANNELS 3 Zrotation Yrotation Xrotation
						End Site
						{
							OFFSET -0.00000 -0.00000 1.16333
						}
					}
				}
			}
		}
	}
	JOINT lowerback
	{
		OFFSET 0 0 0
		CHANNELS 3 Zrotation Yrotation Xrotation
		JOINT Chest
		{
			OFFSET -0.02828 2.14690 -0.11061
			CHANNELS 3 Zrotation Yrotation Xrotation
			JOINT Chest2
			{
				OFFSET -0.00167 2.15299 0.00759
				CHANNELS 3 Zrotation Yrotation Xrotation
				JOINT lowerneck
				{
					OFFSET 0 0 0
					CHANNELS 3 Zrotation Yrotation Xrotation
					JOINT Neck
					{
						OFFSET -0.09296 1.90118 0.07197
						CHANNELS 3 Zrotation Yrotation Xrotation
						JOINT Head
						{
							OFFSET 0.08490 1.89526 -0.24604
							CHANNELS 3 Zrotation Yrotation Xrotation
							End Site
							{
								OFFSET 0.03186 1.92109 -0.09483
							}
						}
					}
				}
				JOINT LeftCollar
				{
					OFFSET 0 0 0
					CHANNELS 3 Zrotation Yrotation Xrotation
					JOINT LeftShoulder
					{
						OFFSET 3.21569 1.44644 -0.03720
CHANNELS 3 Zrotation Xrotation Yrotation
						JOINT LeftElbow
						{
OFFSET 0 -5.476510 -0.000000
CHANNELS 3 Zrotation Xrotation Yrotation
							JOINT LeftWrist
							{
OFFSET 0 -3.090580 -0.000000
CHANNELS 3 Zrotation Xrotation Yrotation
								JOINT lhand
								{
									OFFSET 0 0 0
CHANNELS 3 Zrotation Xrotation Yrotation
									JOINT LFingers
									{
OFFSET 0 -0.771610 -0.000000
CHANNELS 3 Zrotation Xrotation Yrotation
										End Site
										{
OFFSET 0 -0.622090 -0.000000
										}
									}
								}
								JOINT LThumb
								{
OFFSET 0 0.000000 0.000000
CHANNELS 3 Zrotation Xrotation Yrotation
									End Site
									{
OFFSET 0 -0.631590 0.631590
									}
								}
							}
						}
					}
				}
				JOINT RightCollar
				{
					OFFSET 0 0 0
					CHANNELS 3 Zrotation Yrotation Xrotation
					JOINT RightShoulder
					{
						OFFSET -3.38693 1.28904 -0.07093
CHANNELS 3 Zrotation Xrotation Yrotation
						JOINT RightElbow
						{
OFFSET 0 -5.141820 -0.000000
CHANNELS 3 Zrotation Xrotation Yrotation
							JOINT RightWrist
							{
OFFSET 0 -3.355650 -0.000000
CHANNELS 3 Zrotation Xrotation Yrotation
								JOINT rhand
								{
									OFFSET 0 0 0
CHANNELS 3 Zrotation Xrotation Yrotation
									JOINT RFingers
									{
OFFSET 0 -0.801040 -0.000000
CHANNELS 3 Zrotation Xrotation Yrotation
										End Site
										{
OFFSET 0 -0.645820 -0.000000
										}
									}
								}
								JOINT RThumb
								{
OFFSET 0 0.000000 0.000000
CHANNELS 3 Zrotation Xrotation Yrotation
									End Site
									{
OFFSET 0 -0.655680 0.655680
									}
								}
							}
						}
					}
				}
			}
		}
	}
}
MOTION
Frames: 4
Frame Time: 0.008333333333333333
0.691393 16.986073 -1.803301 1.680633 -12.164421 11.591508 0.000000 0.000000 0.000000 -19.331121 -3.159911 -41.526575 7.412723 15.669755 50.418477 1.786949 1.171837 -25.722542 0.316094 -3.613950 -9.993021 0.000000 0.000000 0.000000 9.563348 13.334101 -41.254634 -6.994141 -15.326908 48.852123 -1.234985 3.020524 -20.225251 -0.686753 5.298112 -14.760799 -0.567435 2.165442 21.781023 0.476306 2.663425 5.862285 0.141791 1.272246 -5.801801 -4.814027 -4.833192 -3.424020 5.045700 -6.140330 -9.315600 2.478720 -3.049904 -2.051890 0.000000 0.000000 0.000000 67.852325 -47.450047 2.636689 36.601978 -45.922473 15.953547 0.994785 -58.871635 -33.284012 0.000000 0.000000 0.000000 -7.125000 0.000000 0.000000 -35.766569 59.514044 13.741235 0.000000 0.000000 0.000000 -81.489264 -33.512060 -22.642858 -21.766066 -32.711582 -6.458988 -14.423469 -57.635598 -12.421755 0.000000 0.000000 0.000000 7.125000 0.000000 0.000000 8.894827 17.261115 5.927161
0.694338 16.814788 -1.929486 1.599873 -11.483609 11.644847 0.000000 0.000000 0.000000 -18.775056 -3.755248 -43.745941 8.228964 16.284923 53.383041 1.851309 0.596966 -25.966001 0.320965 -3.641263 -10.069575 0.000000 0.000000 0.000000 9.332192 13.309489 -43.515319 -7.799970 -15.970037 51.838739 -1.315821 2.955819 -20.914530 -0.687689 5.301674 -14.770965 -0.575232 2.156980 22.257257 0.316905 2.625877 6.568220 -0.015101 1.251546 -5.271717 -4.610561 -4.429210 -3.518402 4.781862 -5.603425 -9.910387 2.372435 -2.780024 -2.272510 0.000000 0.000000 0.000000 68.988863 -52.588842 0.525058 37.917560 -46.786375 16.905569 -4.210258 -61.891169 -31.770364 0.000000 0.000000 0.000000 -7.125000 0.000000 0.000000 -39.224456 57.156612 13.028724 0.000000 0.000000 0.000000 -82.164578 -37.830893 -20.557108 -22.851799 -33.926264 -7.055494 -12.913951 -58.381095 -12.019800 0.000000 0.000000 0.000000 7.125000 0.000000 0.000000 9.948007 17.766404 6.537569
0.684461 16.652016 -2.027501 1.399578 -10.667980 11.533686 0.000000 0.000000 0.000000 -18.053171 -4.431528 -45.498745 9.021232 16.821371 56.163601 1.920985 0.111964 -26.283198 0.388155 -4.000743 -11.078668 0.000000 0.000000 0.000000 9.401088 13.002451 -45.277502 -8.535255 -16.499193 54.468492 -1.426193 2.323555 -21.941860 -1.049856 6.515552 -18.287862 -0.517649 2.184599 22.659802 0.319517 2.663245 7.238487 -0.052886 1.267976 -4.745615 -4.849088 -4.035624 -3.713005 4.732315 -5.061827 -9.982634 2.395738 -2.496031 -2.286011 0.000000 0.000000 0.000000 72.032155 -57.400856 -0.627784 40.107890 -48.133689 18.519519 -6.413785 -64.349856 -30.386039 0.000000 0.000000 0.000000 -7.125000 0.000000 0.000000 -39.981024 55.615667 11.766183 0.000000 0.000000 0.000000 -84.108562 -42.268871 -18.637240 -24.032256 -35.198414 -7.725156 -12.002089 -60.197283 -11.714047 0.000000 0.000000 0.000000 7.125000 0.000000 0.000000 10.589294 18.127696 6.887791
0.648109 16.521093 -2.113330 1.354748 -9.488787 11.200806 0.000000 0.000000 0.000000 -17.384426 -5.520574 -46.542846 9.661719 17.215099 58.351522 1.949116 -0.322953 -26.335895 0.374563 -3.930537 -10.881260 0.000000 0.000000 0.000000 9.526186 12.402673 -46.418840 -9.177631 -16.920547 56.702296 -1.493691 2.117748 -22.520913 -1.000425 6.364770 -17.846582 -0.537566 2.209875 22.989658 0.159717 2.674735 7.948355 -0.210545 1.275363 -4.132499 -5.048500 -3.734919 -3.805711 5.218556 -4.610457 -10.033298 2.593882 -2.271953 -2.296593 0.000000 0.000000 0.000000 77.832045 -62.278798 1.084823 42.133771 -49.284327 20.041940 -7.395671 -66.501687 -29.243707 0.000000 0.000000 0.000000 -7.125000 0.000000 0.000000 -39.879654 54.525829 10.599226 0.000000 0.000000 0.000000 -86.737966 -45.356069 -15.673994 -26.623415 -37.817187 -9.267514 -11.225052 -62.764591 -11.615888 0.000000 0.000000 0.000000 7.125000 0.000000 0.000000 11.132445 18.268767 7.219200
